<svg width="33" height="33" viewBox="0 0 33 33" fill="none" xmlns="http://www.w3.org/2000/svg">
<path d="M6.76966 25.4297C7.4454 24.9216 8.28548 24.62 9.196 24.62C11.4294 24.62 13.2397 26.4331 13.2397 28.67C13.2397 29.582 12.9391 30.4234 12.4313 31.1002M26.1789 25.4297C25.5031 24.9216 24.663 24.62 23.7525 24.62C21.5196 24.62 19.7088 26.4331 19.7088 28.67C19.7088 29.582 20.0094 30.4234 20.5172 31.1002M26.1784 13.2801C27.7769 13.279 28.6149 13.2586 29.2646 12.9268C29.8735 12.616 30.3681 12.1207 30.6784 11.5109C31.0311 10.8177 31.0311 9.9104 31.0311 8.09623V7.12449C31.0311 5.30981 31.0311 4.40298 30.6784 3.70983C30.3681 3.1 29.8735 2.60467 29.2646 2.29387C28.5726 1.94065 27.6666 1.94064 25.8553 1.94064H7.09323C5.28139 1.94064 4.37598 1.94065 3.6839 2.29387C3.07502 2.60467 2.58046 3.1 2.27015 3.70983C1.91748 4.40298 1.91748 5.31032 1.91748 7.12449V8.09623C1.91748 9.91091 1.91748 10.8177 2.27015 11.5109C2.58046 12.1207 3.07502 12.616 3.6839 12.9268C4.33362 13.2581 5.17115 13.2785 6.77017 13.2801M26.1784 13.2801C26.1784 13.3849 26.1784 13.4927 26.1784 13.6042V25.9158C26.1784 27.7305 26.1784 28.6378 25.8257 29.3305C25.5154 29.9403 25.0208 30.4356 24.4119 30.7464C23.7199 31.0996 22.8139 31.0997 21.0026 31.0997H11.9449C10.1331 31.0997 9.22764 31.0996 8.53557 30.7464C7.92668 30.4356 7.43213 29.9403 7.12182 29.3305C6.76915 28.6373 6.76914 27.73 6.76914 25.9158V13.6042C6.76914 13.4927 6.76914 13.3849 6.76914 13.2801C6.77068 11.6791 6.79109 10.8402 7.12182 10.1895C7.43213 9.57966 7.92668 9.08433 8.53557 8.77354C9.22764 8.42032 10.1331 8.42031 11.9449 8.42031H21.0026C22.8139 8.42031 23.7199 8.42032 24.4119 8.77354C25.0208 9.08433 25.5154 9.57966 25.8257 10.1895C26.1569 10.8397 26.1773 11.6791 26.1784 13.2801ZM19.7093 16.5204C19.7093 18.31 18.2608 19.7602 16.4745 19.7602C14.6882 19.7602 13.2397 18.3095 13.2397 16.5204C13.2397 14.7313 14.6882 13.2806 16.4745 13.2806C18.2608 13.2806 19.7093 14.7313 19.7093 16.5204Z" stroke="#F7C0FF" stroke-width="2" stroke-linecap="round" stroke-linejoin="round"/>
</svg>
