<svg width="37" height="33" viewBox="0 0 37 33" fill="none" xmlns="http://www.w3.org/2000/svg">
<path d="M14.1425 20.7687C13.331 20.7687 12.6731 21.4276 12.6731 22.2404C12.6731 23.0532 13.331 23.7121 14.1425 23.7121C14.954 23.7121 15.6119 23.0532 15.6119 22.2404C15.6119 21.4276 14.954 20.7687 14.1425 20.7687Z" fill="#4CDAE5"/>
<path d="M21.4897 22.2404C21.4897 21.4276 22.1476 20.7687 22.9591 20.7687C23.7706 20.7687 24.4285 21.4276 24.4285 22.2404C24.4285 23.0532 23.7706 23.7121 22.9591 23.7121C22.1476 23.7121 21.4897 23.0532 21.4897 22.2404Z" fill="#4CDAE5"/>
<path fill-rule="evenodd" clip-rule="evenodd" d="M18.5506 0.164246C16.9276 0.164246 15.6119 1.48206 15.6119 3.1076C15.6119 4.19692 16.2029 5.14821 17.0813 5.65734V8.99481H9.73384C7.29933 8.99481 5.32568 10.9715 5.32568 13.4098V28.1271C5.32568 30.5654 7.29933 32.5421 9.73384 32.5421H27.3674C29.802 32.5421 31.7756 30.5654 31.7756 28.1271V13.4098C31.7756 10.9715 29.802 8.99481 27.3674 8.99481H20.02V5.65734C20.8984 5.14821 21.4894 4.19692 21.4894 3.1076C21.4894 1.48206 20.1736 0.164246 18.5506 0.164246ZM8.26445 13.4098C8.26445 12.5971 8.92233 11.9382 9.73384 11.9382H11.7646L13.8914 16.1978C14.389 17.1951 15.4067 17.8249 16.5198 17.8249H20.5814C21.6946 17.8249 22.7123 17.1951 23.2099 16.1978L25.3366 11.9382H27.3674C28.179 11.9382 28.8368 12.5971 28.8368 13.4098V28.1271C28.8368 28.9399 28.179 29.5988 27.3674 29.5988H9.73384C8.92233 29.5988 8.26445 28.9399 8.26445 28.1271V13.4098ZM20.5814 14.8815L22.0508 11.9382H15.0505L16.5198 14.8815H20.5814Z" fill="#4CDAE5"/>
<path d="M2.38686 19.2965C1.57536 19.2965 0.91748 19.9554 0.91748 20.7682V23.7116C0.91748 24.5243 1.57536 25.1832 2.38686 25.1832C3.19837 25.1832 3.85624 24.5243 3.85624 23.7116V20.7682C3.85624 19.9554 3.19837 19.2965 2.38686 19.2965Z" fill="#4CDAE5"/>
<path d="M33.2454 20.7687C33.2454 19.956 33.9032 19.2971 34.7147 19.2971C35.5262 19.2971 36.1841 19.956 36.1841 20.7687V23.7121C36.1841 24.5248 35.5262 25.1838 34.7147 25.1838C33.9032 25.1838 33.2454 24.5248 33.2454 23.7121V20.7687Z" fill="#4CDAE5"/>
</svg>
