<svg width="47" height="46" viewBox="0 0 47 46" fill="none" xmlns="http://www.w3.org/2000/svg">
<path d="M23.4832 44.7637C35.477 44.7637 45.1999 35.0257 45.1999 23.0132C45.1999 11.0007 35.477 1.26263 23.4832 1.26263C11.4895 1.26263 1.7666 11.0007 1.7666 23.0132C1.7666 35.0257 11.4895 44.7637 23.4832 44.7637Z" stroke="#FFE244" stroke-width="2" stroke-miterlimit="10"/>
<path d="M41.1277 16.2815L36.5853 15.9237C28.2661 7.08034 23.0602 19.3486 23.0602 19.3486C19.3345 13.7256 9.48413 10.863 9.48413 10.863C9.8414 22.569 17.5481 27.783 17.5481 27.783C17.8033 29.8788 12.3423 37.802 12.3423 37.802C38.5247 34.1215 37.0339 19.3486 37.0339 19.3486L41.1277 16.2815ZM30.4097 18.4284C29.8176 18.4284 29.3379 17.9479 29.3379 17.355C29.3379 16.762 29.8176 16.2815 30.4097 16.2815C31.0017 16.2815 31.4815 16.762 31.4815 17.355C31.4815 17.9479 31.0017 18.4284 30.4097 18.4284Z" fill="#FFE244"/>
</svg>
