<svg width="37" height="33" viewBox="0 0 37 33" fill="none" xmlns="http://www.w3.org/2000/svg">
<path d="M15.1232 17.9924C14.8154 17.9924 14.5592 17.7358 14.5592 17.4275C14.5592 17.1193 14.8154 16.8627 15.1232 16.8627H17.7389C18.0466 16.8627 18.3028 17.1193 18.3028 17.4275C18.3028 17.7358 18.0466 17.9924 17.7389 17.9924H15.1232ZM5.99453 11.4176C5.53315 11.4176 5.1228 11.0066 5.1228 10.5445C5.1228 10.0824 5.53315 9.67144 5.99453 9.67144H6.7897C7.07194 9.67144 7.30263 9.46596 7.30263 9.18328C7.53332 5.99865 9.45643 3.0967 12.3288 1.65825C12.457 1.58106 12.6111 1.55551 12.7137 1.55551C13.1751 1.55551 13.5854 1.96649 13.5854 2.4286V4.22641C13.5854 4.50909 13.8161 4.74013 14.0983 4.74013C14.3806 4.74013 14.6113 4.50909 14.6113 4.22641V1.58107C14.6113 1.14453 14.9445 0.759096 15.3549 0.707978C15.6882 0.65686 16.0475 0.65686 16.3807 0.65686C16.7656 0.65686 17.1759 0.682419 17.5092 0.707978C17.9451 0.759096 18.2528 1.11897 18.2528 1.58107V4.20085C18.2528 4.48353 18.4835 4.71457 18.7658 4.71457C19.048 4.71457 19.2787 4.48353 19.2787 4.20085V2.4286C19.2787 1.96649 19.689 1.55551 20.1504 1.55551C20.253 1.55551 20.4066 1.58106 20.5608 1.65825C23.4842 3.17338 25.3558 5.97309 25.587 9.18328C25.6125 9.46596 25.8177 9.67144 26.0999 9.67144H26.8951C27.3565 9.67144 27.7668 10.0824 27.7668 10.5445C27.7668 11.0066 27.3565 11.4176 26.8951 11.4176H5.99606H5.99453ZM24.1753 9.87643C24.0982 9.67093 24.0727 9.491 24.0472 9.28551C23.8935 7.05116 22.7135 4.97067 20.893 3.63548V4.20033C20.893 5.33054 19.9697 6.25475 18.8418 6.25475C17.7139 6.25475 16.7906 5.33003 16.7906 4.20033V2.19703H16.1751V4.17478C16.1751 5.30499 15.2518 6.22919 14.1239 6.22919C12.9959 6.22919 12.0726 5.30447 12.0726 4.17478V3.58385C10.1751 4.91956 8.99556 7.0256 8.81591 9.28551C8.79039 9.491 8.76487 9.67093 8.6878 9.87643H24.1763H24.1753Z" fill="#98E45C"/>
<path d="M28.3349 25.5021L29.717 26.893L32.4812 24.1117M35.936 25.5021C35.936 28.6044 32.1633 30.852 30.8511 31.5401C30.7092 31.6147 30.6382 31.6515 30.5397 31.671C30.4632 31.6858 30.3524 31.6858 30.2759 31.671C30.1774 31.6515 30.1064 31.6147 29.9646 31.5401C28.6524 30.852 24.8796 28.6044 24.8796 25.5021V22.8721C24.8796 22.3159 24.8796 22.0383 24.97 21.7991C25.0496 21.588 25.1797 21.3999 25.3477 21.2501C25.538 21.0809 25.7968 20.9833 26.3143 20.788L30.0192 19.3899C30.1626 19.3358 30.2345 19.3087 30.3086 19.2979C30.3739 19.2882 30.4407 19.2882 30.5061 19.2979C30.5801 19.3087 30.652 19.3358 30.7954 19.3899L34.5003 20.788C35.0178 20.9833 35.2761 21.0809 35.4669 21.2501C35.6354 21.3994 35.765 21.588 35.8446 21.7991C35.935 22.0378 35.935 22.3159 35.935 22.8721V25.5021H35.936Z" stroke="#98E45C" stroke-width="2" stroke-linecap="round" stroke-linejoin="round"/>
<path d="M30.7046 31.6822C29.7783 31.6822 28.8994 31.4705 28.1089 31.0907H2.68634C2.48117 31.0907 2.32754 31.0135 2.19893 30.8597C2.14789 30.8341 2.09634 30.7314 2.12186 30.6031C2.66031 27.9066 4.35273 25.4151 6.89136 23.5918C9.53257 21.6912 12.9174 20.6638 16.4304 20.6638C19.4518 20.6638 22.3778 21.4244 24.8348 22.846C25.0052 22.3588 25.2293 21.8993 25.4988 21.4745C23.9217 20.5712 22.142 19.895 20.2255 19.508C22.6361 17.9668 24.0978 15.1165 24.0978 11.983V11.803H8.81447V11.983C8.81447 15.142 10.2762 17.9673 12.6607 19.508C6.42946 20.7409 1.63445 25.0553 0.608591 30.3204C0.480486 30.8597 0.634106 31.4245 0.993413 31.8616C1.40376 32.3498 2.01928 32.6319 2.68583 32.6319H30.2004C30.8669 32.6319 31.4825 32.3492 31.8928 31.8616C31.9821 31.7527 32.0571 31.6362 32.1179 31.514C31.6636 31.6244 31.19 31.6827 30.7036 31.6827L30.7046 31.6822ZM10.4308 13.3437H22.3804C21.8164 16.6827 19.3288 19.0965 16.4053 19.0965C13.4819 19.0965 10.9948 16.6822 10.4303 13.3437H10.4308Z" fill="#98E45C"/>
</svg>
