<svg width="31" height="43" viewBox="0 0 31 43" fill="none" xmlns="http://www.w3.org/2000/svg">
<path d="M15.4982 9.08247C17.7391 9.08247 19.5557 7.26302 19.5557 5.01862C19.5557 2.77422 17.7391 0.954773 15.4982 0.954773C13.2573 0.954773 11.4407 2.77422 11.4407 5.01862C11.4407 7.26302 13.2573 9.08247 15.4982 9.08247Z" fill="#FF5454"/>
<path d="M12.5635 10.4626C12.5635 10.4626 12.5635 15.5744 14.4009 15.6255V11.6097L14.0946 10.7182L16.7486 10.7693L16.4424 11.5872L16.3383 15.6255C16.3383 15.6255 18.4247 15.421 18.4288 10.4626C18.4288 10.4626 22.5797 10.1559 23.8745 13.0441V17.4289H6.98657V13.1529C6.98657 13.1529 8.37838 10.1564 12.5635 10.4631V10.4626Z" fill="#FF5454"/>
<path d="M0.365479 18.3312H30.631L28.8447 25.2867L24.6085 25.5423L24.5575 20.9417L6.1838 21.0951L6.16135 25.5423L2.04973 25.2356L0.365479 18.3312Z" fill="#FF5454"/>
<path d="M7.25562 22.4241H23.8746L21.5462 41.8999L9.46198 42.1341L7.25562 22.4241Z" fill="#FF5454"/>
</svg>
