<svg width="25" height="34" viewBox="0 0 25 34" fill="none" xmlns="http://www.w3.org/2000/svg">
<path d="M19.9339 8.61331C31.6834 21.8855 11.7597 28.5875 1.89404 32.6606" stroke="#BCCE55" stroke-linecap="round" stroke-linejoin="round"/>
<path d="M19.9579 5.88823C20.4315 4.43598 20.8133 2.77516 19.9579 1.70374C18.19 -0.510165 15.9157 0.775965 14.6045 3.05683C11.0732 9.20014 12.612 16.6976 9.25118 23.1936C7.33572 26.896 4.51281 29.4263 1.26221 31.8693" stroke="#BCCE55" stroke-linecap="round" stroke-linejoin="round"/>
<path d="M20.0441 15.416C23.7745 24.5242 10.4975 30.1292 3 30.1292" stroke="#BCCE55" stroke-linecap="round" stroke-linejoin="round"/>
<path d="M14.5034 27.4399C14.7454 29.1477 14.0574 30.8096 14.0574 32.5026C15.6406 32.3359 16.6935 32.3359 17.2166 32.5026" stroke="#BCCE55" stroke-linecap="round" stroke-linejoin="round"/>
<path d="M20.6914 3.08903C21.6473 3.04456 22.6625 3.10487 23.5347 3.39215" stroke="#BCCE55" stroke-linecap="round" stroke-linejoin="round"/>
</svg>
