<svg width="37" height="37" viewBox="0 0 37 37" fill="none" xmlns="http://www.w3.org/2000/svg">
<path d="M26.2083 18.5C30.4655 18.5 33.9167 15.0489 33.9167 10.7917C33.9167 6.53449 30.4655 3.08334 26.2083 3.08334C21.9512 3.08334 18.5 6.53449 18.5 10.7917C18.5 12.0248 18.7895 13.1902 19.3043 14.2238C19.4412 14.4985 19.4867 14.8124 19.4074 15.1088L18.9483 16.8247C18.749 17.5696 19.4304 18.251 20.1753 18.0517L21.8912 17.5926C22.1877 17.5133 22.5015 17.5588 22.7763 17.6957C23.8098 18.2105 24.9753 18.5 26.2083 18.5Z" stroke="white" stroke-width="2"/>
<path d="M4.24244 12.2188C4.20822 11.5812 3.66355 11.092 3.02588 11.1262C2.38822 11.1604 1.89905 11.7051 1.93327 12.3428L4.24244 12.2188ZM5.73146 6.30869C5.29168 6.7717 5.31051 7.50354 5.77352 7.94333C6.23653 8.38311 6.96837 8.36428 7.40816 7.90128L5.73146 6.30869ZM14.8988 32.0856C15.4395 32.4254 16.1533 32.2626 16.4931 31.7219C16.8328 31.1813 16.6699 30.4675 16.1292 30.1277L14.8988 32.0856ZM21.7575 32.465C21.1326 32.3341 20.5197 32.7348 20.3889 33.3598C20.258 33.9848 20.6585 34.5976 21.2836 34.7285L21.7575 32.465ZM22.5771 25.5049L23.2792 24.7656L21.6025 23.1731L20.9004 23.9123L22.5771 25.5049ZM25.5897 24.4544L28.535 26.1497L29.6887 24.1456L26.7433 22.4502L25.5897 24.4544ZM29.1034 29.6646L26.9135 31.9703L28.5902 33.5628L30.7802 31.2573L29.1034 29.6646ZM11.3454 26.1446C5.36974 19.8533 4.36738 14.5465 4.24244 12.2188L1.93327 12.3428C2.08628 15.1937 3.29677 21.0288 9.66874 27.7372L11.3454 26.1446ZM13.4658 15.9125L13.9079 15.4469L12.2312 13.8543L11.7891 14.3198L13.4658 15.9125ZM14.2553 9.65101L12.3113 6.90146L10.4231 8.2365L12.3671 10.986L14.2553 9.65101ZM12.6274 15.1161C11.7891 14.3198 11.788 14.321 11.7869 14.3221C11.7866 14.3225 11.7855 14.3236 11.7847 14.3244C11.7833 14.326 11.7818 14.3276 11.7803 14.3292C11.7772 14.3325 11.7741 14.3359 11.7709 14.3394C11.7644 14.3466 11.7575 14.3542 11.7503 14.3625C11.7359 14.3791 11.72 14.3981 11.7031 14.4195C11.6692 14.4623 11.6309 14.5149 11.5907 14.5778C11.51 14.7038 11.4225 14.8698 11.3485 15.078C11.1978 15.5013 11.1158 16.0618 11.2183 16.7619C11.4198 18.1372 12.321 19.9868 14.6757 22.4658L16.3525 20.8732C14.1514 18.5559 13.6093 17.1288 13.5064 16.4266C13.4568 16.0879 13.5072 15.9094 13.5271 15.8533C13.5384 15.8218 13.5457 15.813 13.5385 15.8243C13.535 15.8297 13.5281 15.8398 13.5164 15.8546C13.5106 15.8619 13.5036 15.8705 13.4952 15.8801C13.491 15.885 13.4865 15.8901 13.4816 15.8955C13.4791 15.8981 13.4766 15.9009 13.4739 15.9037C13.4726 15.9052 13.4713 15.9066 13.4699 15.908C13.4692 15.9088 13.4682 15.9098 13.4679 15.9103C13.4668 15.9114 13.4658 15.9125 12.6274 15.1161ZM14.6757 22.4658C17.0234 24.9375 18.7966 25.9092 20.1494 26.1289C20.8435 26.2416 21.4054 26.1516 21.8309 25.9839C22.0389 25.9018 22.2036 25.8055 22.327 25.7179C22.3886 25.6741 22.4399 25.6327 22.4814 25.5964C22.502 25.5782 22.5204 25.5613 22.5362 25.5459C22.5443 25.5383 22.5515 25.5309 22.5583 25.5241C22.5617 25.5207 22.5651 25.5173 22.5682 25.5141C22.5697 25.5126 22.5712 25.511 22.5726 25.5095C22.5734 25.5087 22.5745 25.5075 22.5749 25.5072C22.576 25.5059 22.5771 25.5049 21.7387 24.7086C20.9004 23.9123 20.9015 23.9112 20.9024 23.9102C20.9028 23.9097 20.9038 23.9086 20.9045 23.9078C20.9059 23.9065 20.9073 23.9051 20.9086 23.9037C20.9113 23.9009 20.9139 23.8981 20.9166 23.8955C20.9217 23.8904 20.9266 23.8855 20.9312 23.881C20.9406 23.8721 20.9489 23.8644 20.9563 23.8579C20.9711 23.8449 20.9821 23.8366 20.9892 23.8317C21.0035 23.8214 21.0021 23.8249 20.9824 23.8326C20.9526 23.8443 20.8127 23.8938 20.5201 23.8463C19.8995 23.7455 18.5603 23.1978 16.3525 20.8732L14.6757 22.4658ZM12.3113 6.90146C10.7487 4.69136 7.62182 4.31849 5.73146 6.30869L7.40816 7.90128C8.21419 7.05267 9.63319 7.11933 10.4231 8.2365L12.3113 6.90146ZM26.9135 31.9703C26.4832 32.4232 26.0332 32.6659 25.5957 32.7091L25.8229 35.0105C26.9745 34.8967 27.9066 34.2825 28.5902 33.5628L26.9135 31.9703ZM13.9079 15.4469C15.3996 13.8765 15.5052 11.4188 14.2553 9.65101L12.3671 10.986C13.0179 11.9065 12.9181 13.1312 12.2312 13.8543L13.9079 15.4469ZM28.535 26.1497C29.8006 26.8782 30.0482 28.6701 29.1034 29.6646L30.7802 31.2573C32.792 29.1392 32.206 25.5946 29.6887 24.1456L28.535 26.1497ZM23.2792 24.7656C23.8733 24.14 24.7993 23.9994 25.5897 24.4544L26.7433 22.4502C25.0498 21.4754 22.9496 21.7549 21.6025 23.1731L23.2792 24.7656ZM16.1292 30.1277C14.6126 29.1746 12.9986 27.885 11.3454 26.1446L9.66874 27.7372C11.4479 29.6103 13.2105 31.0246 14.8988 32.0856L16.1292 30.1277ZM25.5957 32.7091C24.7532 32.7923 23.4198 32.8131 21.7575 32.465L21.2836 34.7285C23.2084 35.1315 24.7811 35.1133 25.8229 35.0105L25.5957 32.7091Z" fill="white"/>
<path d="M29.5954 9.21205C29.6725 9.23141 29.7443 9.26759 29.8056 9.3179C29.8666 9.36802 29.9157 9.43091 29.9493 9.50201C29.9827 9.57285 30 9.65015 30 9.73215C29.9974 9.85933 29.9504 9.98175 29.8669 10.0784C29.783 10.1756 29.6675 10.2407 29.5425 10.2619C28.7804 10.4006 28.0107 10.4943 27.2381 10.5424C27.1896 10.5456 27.1421 10.5586 27.0986 10.5808C27.0549 10.603 27.0161 10.634 26.9846 10.6718C26.953 10.7098 26.9294 10.7539 26.9152 10.8015C26.9082 10.8253 26.9036 10.8498 26.9013 10.8717L26.8998 10.9024L26.9027 10.9499L26.9681 11.5325C27.0496 12.2495 27.1996 12.9567 27.4153 13.6432L27.4993 13.8996L27.5899 14.1557L28.0116 15.2821C28.0361 15.348 28.0472 15.4181 28.0442 15.4882C28.0412 15.5584 28.0242 15.6272 27.9941 15.6909C27.964 15.7546 27.9213 15.8118 27.8687 15.8591C27.8158 15.9065 27.7539 15.943 27.6936 15.9637C27.6336 15.9872 27.5698 15.9995 27.5003 16C27.3965 15.9981 27.2957 15.9662 27.21 15.9084C27.162 15.8761 27.1199 15.8364 27.0823 15.786L27.0462 15.732L27.0207 15.6819L26.913 15.4521C26.6218 14.8269 26.3559 14.2143 26.1132 13.6074L26.0008 13.3209L25.8558 13.6899C25.7761 13.8879 25.6945 14.0854 25.6109 14.2822L25.4842 14.5768L25.2888 15.0168L25.0873 15.4534L24.9911 15.6475C24.9414 15.7796 24.841 15.8869 24.7115 15.9457C24.5814 16.0046 24.4331 16.0096 24.2994 15.9595C24.1661 15.9095 24.0585 15.8091 24 15.6805C23.9598 15.5919 23.9449 15.4946 23.958 15.3923L23.9693 15.3304L23.9863 15.2754L24.4075 14.1502C24.6573 13.4733 24.841 12.7741 24.956 12.0639L24.9959 11.7971L25.0298 11.5257L25.0973 10.9461C25.1034 10.8963 25.0992 10.8459 25.0852 10.7978C25.0711 10.7499 25.0475 10.7054 25.0158 10.6671C24.9842 10.6289 24.9453 10.5976 24.9014 10.5751C24.8577 10.5527 24.81 10.5394 24.7624 10.5361C23.9827 10.4876 23.2065 10.3925 22.4387 10.2514C22.369 10.2389 22.3026 10.2126 22.2432 10.1743C22.184 10.1362 22.1331 10.0867 22.0932 10.0289C22.0536 9.9713 22.0258 9.9065 22.0114 9.83831C21.997 9.77013 21.9963 9.69977 22.0088 9.63401C22.0209 9.56506 22.0466 9.49917 22.0845 9.44006C22.1226 9.38085 22.1722 9.32972 22.2305 9.28968C22.2889 9.24955 22.3549 9.22145 22.4246 9.20704C22.4943 9.19263 22.5662 9.19226 22.634 9.20556C24.8577 9.61593 27.1379 9.61593 29.3593 9.20601C29.4375 9.19057 29.5182 9.19264 29.5954 9.21205ZM26.9522 6.39432C27.477 6.91839 27.477 7.76688 26.9522 8.29095C26.4257 8.81669 25.5708 8.81669 25.0443 8.29095C24.5194 7.76688 24.5194 6.91839 25.0443 6.39432C25.5708 5.86856 26.4257 5.86856 26.9522 6.39432Z" fill="white"/>
</svg>
