<svg width="20" height="21" viewBox="0 0 20 21" fill="none" xmlns="http://www.w3.org/2000/svg">
<circle cx="10" cy="10.939" r="9.5" stroke="#B68A36"/>
<circle cx="10" cy="10.939" r="8.09524" fill="#B68A36"/>
<path d="M9.39748 17.1208V5.30266H10.1546V17.1208H9.39748ZM11.4056 9.20359C11.3687 8.83119 11.2102 8.54189 10.9302 8.33569C10.6501 8.12948 10.27 8.02638 9.78988 8.02638C9.46365 8.02638 9.1882 8.07255 8.96353 8.16488C8.73886 8.25413 8.56651 8.37877 8.44649 8.53881C8.32954 8.69885 8.27106 8.88043 8.27106 9.08356C8.2649 9.25283 8.3003 9.40056 8.37724 9.52674C8.45726 9.65292 8.56651 9.76218 8.70501 9.85451C8.8435 9.94376 9.00354 10.0222 9.18512 10.0899C9.3667 10.1546 9.5606 10.21 9.7668 10.2561L10.6162 10.4593C11.0286 10.5516 11.4072 10.6747 11.7519 10.8286C12.0966 10.9825 12.3951 11.1717 12.6475 11.3964C12.8998 11.6211 13.0953 11.8858 13.2338 12.1904C13.3753 12.4951 13.4477 12.8444 13.4507 13.2384C13.4477 13.817 13.2999 14.3186 13.0076 14.7434C12.7183 15.165 12.2997 15.4928 11.7519 15.7267C11.2071 15.9575 10.5501 16.0729 9.78065 16.0729C9.01739 16.0729 8.35262 15.956 7.78633 15.7221C7.22312 15.4881 6.78302 15.1419 6.46602 14.6833C6.1521 14.2217 5.98744 13.6508 5.97205 12.9706H7.90636C7.9279 13.2876 8.01869 13.5523 8.17873 13.7647C8.34185 13.9739 8.55882 14.1324 8.82965 14.2402C9.10356 14.3448 9.41287 14.3971 9.75757 14.3971C10.0961 14.3971 10.39 14.3479 10.6393 14.2494C10.8917 14.1509 11.0871 14.014 11.2256 13.8385C11.3641 13.6631 11.4333 13.4615 11.4333 13.2338C11.4333 13.0214 11.3703 12.8429 11.2441 12.6983C11.121 12.5536 10.9394 12.4305 10.6993 12.3289C10.4623 12.2274 10.1715 12.135 9.82681 12.052L8.79734 11.7934C8.00023 11.5995 7.37085 11.2964 6.9092 10.884C6.44755 10.4716 6.21827 9.91606 6.22134 9.21743C6.21827 8.64499 6.37061 8.14487 6.67838 7.71708C6.98922 7.28929 7.41547 6.95536 7.95714 6.7153C8.49881 6.47525 9.11434 6.35522 9.80373 6.35522C10.5054 6.35522 11.1179 6.47525 11.6411 6.7153C12.1674 6.95536 12.5767 7.28929 12.8691 7.71708C13.1614 8.14487 13.3123 8.64037 13.3215 9.20359H11.4056Z" fill="white"/>
</svg>
