<svg width="33" height="31" viewBox="0 0 33 31" fill="none" xmlns="http://www.w3.org/2000/svg">
<path fill-rule="evenodd" clip-rule="evenodd" d="M28.214 24.4984V21.5266C28.214 20.7908 28.5163 20.085 29.0546 19.5646L31.2285 17.4631C32.3493 16.3796 32.3493 14.6227 31.2285 13.5391L29.0546 11.4376C28.5163 10.9173 28.214 10.2115 28.214 9.4756V6.5016C28.214 4.96918 26.9289 3.72689 25.3438 3.72689H22.2674C21.5062 3.72689 20.7762 3.43454 20.2379 2.91419L18.0641 0.81268C16.9433 -0.270893 15.1259 -0.270893 14.005 0.81268L11.8312 2.91419C11.2929 3.43454 10.5629 3.72689 9.80168 3.72689H6.72533C5.96371 3.72689 5.23331 4.01953 4.69499 4.54037C4.15666 5.06121 3.85455 5.76753 3.85514 6.50381V9.4756C3.85514 10.2115 3.55273 10.9173 3.01447 11.4376L0.840646 13.5391C-0.280215 14.6227 -0.280215 16.3796 0.840646 17.4631L3.01447 19.5646C3.55273 20.085 3.85514 20.7908 3.85514 21.5266V24.4984C3.85514 26.0308 5.14018 27.2731 6.72533 27.2731H9.80168C10.5629 27.2731 11.2929 27.5654 11.8312 28.0858L14.005 30.1874C15.1259 31.2709 16.9433 31.2709 18.0641 30.1874L20.2379 28.0858C20.7762 27.5654 21.5062 27.2731 22.2674 27.2731H25.3415C26.1031 27.2738 26.8336 26.9817 27.3724 26.4611C27.9111 25.9407 28.214 25.2347 28.214 24.4984Z" fill="#B68A36"/>
<path fill-rule="evenodd" clip-rule="evenodd" d="M8.75116 13.2677C8.03458 12.5529 7.82021 11.4776 8.20797 10.5434C8.59574 9.60914 9.50922 9 10.5226 9C11.5359 9 12.4494 9.60914 12.8373 10.5434C13.225 11.4776 13.0107 12.5529 12.294 13.2677C11.3156 14.2441 9.72951 14.2441 8.75116 13.2677Z" stroke="white" stroke-width="2" stroke-linecap="round" stroke-linejoin="round"/>
<path fill-rule="evenodd" clip-rule="evenodd" d="M18.7728 23.268C18.0562 22.5528 17.8419 21.4776 18.2295 20.5434C18.6174 19.609 19.5309 19 20.5443 19C21.5576 19 22.4711 19.609 22.8588 20.5434C23.2467 21.4776 23.0321 22.5528 22.3157 23.268C21.3373 24.244 19.7512 24.244 18.7728 23.268Z" stroke="white" stroke-width="2" stroke-linecap="round"/>
<path d="M22.0475 10L10.0216 22" stroke="white" stroke-width="2" stroke-linecap="round"/>
</svg>
