<svg width="277" height="80" viewBox="0 0 277 80" fill="none" xmlns="http://www.w3.org/2000/svg">
<rect x="7.75293" y="0.892456" width="43.4256" height="43.4256" rx="15.5" fill="white" stroke="#B68A36"/>
<path d="M29.3613 35L26.0438 33.0953L22.9801 34.854H22.7263C22.3377 34.854 21.9582 34.7776 21.601 34.6271C21.2574 34.4812 20.9474 34.2745 20.6846 34.0072C20.4218 33.7444 20.2129 33.4345 20.0669 33.0908C19.9165 32.7337 19.8401 32.3563 19.8401 31.9655V14.8862C19.8401 14.4954 19.9165 14.1181 20.0669 13.7609C20.2129 13.4173 20.4218 13.1073 20.6869 12.8445C20.9497 12.5795 21.2596 12.3729 21.6033 12.2269C21.9559 12.0764 22.3355 12 22.7241 12H35.9962C36.3848 12 36.7644 12.0764 37.1215 12.2269C37.4652 12.3729 37.7751 12.5795 38.0379 12.8468C38.3007 13.1096 38.5096 13.4195 38.6556 13.7632C38.8061 14.1203 38.8825 14.4977 38.8825 14.8885V31.9678C38.8825 32.3586 38.8061 32.7359 38.6556 33.0931C38.5096 33.4367 38.3007 33.7467 38.0357 34.0095C37.7729 34.2745 37.4629 34.4812 37.1193 34.6271C36.7644 34.7776 36.3848 34.854 35.9962 34.854H35.7424L32.6788 33.0953L29.3613 35Z" fill="#B68A36"/>
<path d="M28.4089 18.9831H24.5996C24.074 18.9831 23.6472 18.5564 23.6472 18.0308C23.6472 17.5052 24.074 17.0784 24.5996 17.0784H28.4089C28.9345 17.0784 29.3613 17.5052 29.3613 18.0308C29.3613 18.5564 28.9345 18.9831 28.4089 18.9831ZM33.1684 22.952H24.5996C24.074 22.952 23.6472 22.5252 23.6472 21.9996C23.6472 21.474 24.074 21.0473 24.5996 21.0473H33.1707C33.6962 21.0473 34.123 21.474 34.123 21.9996C34.1208 22.5252 33.6962 22.952 33.1684 22.952Z" fill="white"/>
<path d="M8.98345 64.3732V75.2823H6.67699V66.5625H6.61307L4.11485 68.1285V66.0831L6.81548 64.3732H8.98345ZM16.0036 75.522C15.0874 75.5184 14.299 75.2929 13.6385 74.8455C12.9816 74.3981 12.4755 73.75 12.1204 72.9013C11.7688 72.0525 11.5948 71.0316 11.5984 69.8384C11.5984 68.6488 11.7742 67.6349 12.1257 66.7968C12.4808 65.9588 12.9869 65.3213 13.6438 64.8846C14.3044 64.4442 15.0909 64.224 16.0036 64.224C16.9162 64.224 17.701 64.4442 18.358 64.8846C19.0185 65.3249 19.5263 65.9641 19.8814 66.8022C20.2365 67.6367 20.4123 68.6488 20.4088 69.8384C20.4088 71.0351 20.2312 72.0579 19.8761 72.9066C19.5245 73.7553 19.0203 74.4034 18.3633 74.8508C17.7063 75.2983 16.9198 75.522 16.0036 75.522ZM16.0036 73.6097C16.6286 73.6097 17.1275 73.2954 17.5004 72.6669C17.8732 72.0383 18.0579 71.0955 18.0544 69.8384C18.0544 69.011 17.9691 68.3221 17.7987 67.7716C17.6318 67.2212 17.3938 66.8075 17.0849 66.5305C16.7795 66.2535 16.4191 66.115 16.0036 66.115C15.3821 66.115 14.885 66.4258 14.5121 67.0472C14.1392 67.6687 13.951 68.599 13.9475 69.8384C13.9475 70.6765 14.0309 71.376 14.1978 71.9371C14.3683 72.4946 14.608 72.9137 14.9169 73.1942C15.2259 73.4712 15.5881 73.6097 16.0036 73.6097ZM22.2673 75.2823V64.3732H24.5738V69.1832H24.7176L28.6434 64.3732H31.4079L27.3596 69.2578L31.4559 75.2823H28.6966L25.7083 70.7972L24.5738 72.1821V75.2823H22.2673ZM37.3183 75.2823H35.6705L38.1812 68.0096H40.1627L42.6698 75.2823H41.0221L39.2004 69.6715H39.1436L37.3183 75.2823ZM37.2153 72.4236H41.1073V73.6239H37.2153V72.4236ZM43.6952 75.2823V68.0096H48.5958V69.2773H45.2328V71.0103H48.3436V72.278H45.2328V74.0145H48.61V75.2823H43.6952ZM52.5464 75.2823H49.9682V68.0096H52.5677C53.2992 68.0096 53.9289 68.1552 54.4569 68.4464C54.9848 68.7352 55.3908 69.1507 55.6749 69.6928C55.9614 70.2349 56.1046 70.8836 56.1046 71.6388C56.1046 72.3964 55.9614 73.0474 55.6749 73.5919C55.3908 74.1365 54.9824 74.5543 54.4498 74.8455C53.9195 75.1367 53.285 75.2823 52.5464 75.2823ZM51.5059 73.9648H52.4824C52.937 73.9648 53.3193 73.8843 53.6295 73.7233C53.942 73.56 54.1763 73.3079 54.3326 72.9669C54.4912 72.6237 54.5705 72.181 54.5705 71.6388C54.5705 71.1014 54.4912 70.6623 54.3326 70.3214C54.1763 69.9804 53.9431 69.7295 53.633 69.5685C53.3229 69.4075 52.9405 69.327 52.486 69.327H51.5059V73.9648Z" fill="#B68A36"/>
<path d="M4.89695 55.7186V48.4459H9.25774V49.2272H5.77763V51.6845H8.93104V52.4658H5.77763V55.7186H4.89695ZM10.8024 55.7186V50.2641H11.6405V55.7186H10.8024ZM11.2286 49.355C11.0652 49.355 10.9244 49.2994 10.806 49.1881C10.69 49.0768 10.632 48.9431 10.632 48.7868C10.632 48.6306 10.69 48.4968 10.806 48.3855C10.9244 48.2743 11.0652 48.2186 11.2286 48.2186C11.3919 48.2186 11.5316 48.2743 11.6476 48.3855C11.766 48.4968 11.8252 48.6306 11.8252 48.7868C11.8252 48.9431 11.766 49.0768 11.6476 49.1881C11.5316 49.2994 11.3919 49.355 11.2286 49.355ZM14.1636 52.4374V55.7186H13.3255V50.2641H14.1352V51.1164H14.2062C14.334 50.8394 14.5281 50.6168 14.7886 50.4487C15.049 50.2783 15.3852 50.1931 15.7971 50.1931C16.1664 50.1931 16.4896 50.2688 16.7665 50.4203C17.0435 50.5695 17.259 50.7968 17.4129 51.1022C17.5667 51.4052 17.6437 51.7887 17.6437 52.2527V55.7186H16.8056V52.3095C16.8056 51.881 16.6943 51.5472 16.4718 51.3081C16.2493 51.0666 15.9439 50.9459 15.5556 50.9459C15.2881 50.9459 15.049 51.0039 14.8383 51.1199C14.6299 51.2359 14.4654 51.4052 14.3447 51.6277C14.2239 51.8503 14.1636 52.1201 14.1636 52.4374ZM21.612 55.8323C21.0865 55.8323 20.6331 55.7163 20.252 55.4843C19.8732 55.2499 19.5808 54.9232 19.3748 54.5041C19.1712 54.0827 19.0694 53.5927 19.0694 53.034C19.0694 52.4753 19.1712 51.9828 19.3748 51.5567C19.5808 51.1282 19.8672 50.7944 20.2342 50.5553C20.6035 50.3138 21.0344 50.1931 21.5268 50.1931C21.8109 50.1931 22.0914 50.2404 22.3684 50.3351C22.6454 50.4298 22.8975 50.5837 23.1248 50.7968C23.3521 51.0075 23.5332 51.2868 23.6681 51.6348C23.8031 51.9828 23.8706 52.4113 23.8706 52.9203V53.2754H19.666V52.551H23.0183C23.0183 52.2432 22.9567 51.9686 22.8336 51.7272C22.7129 51.4857 22.5401 51.2951 22.3152 51.1554C22.0926 51.0157 21.8298 50.9459 21.5268 50.9459C21.193 50.9459 20.9042 51.0288 20.6603 51.1945C20.4189 51.3578 20.233 51.5709 20.1028 51.8337C19.9726 52.0965 19.9075 52.3782 19.9075 52.6789V53.1618C19.9075 53.5737 19.9785 53.9229 20.1206 54.2094C20.265 54.4935 20.465 54.7101 20.7207 54.8593C20.9764 55.006 21.2735 55.0794 21.612 55.0794C21.8322 55.0794 22.0311 55.0486 22.2086 54.9871C22.3886 54.9232 22.5436 54.8285 22.6738 54.703C22.804 54.5752 22.9047 54.4165 22.9757 54.2272L23.7853 54.4544C23.7001 54.729 23.5569 54.9705 23.3556 55.1789C23.1544 55.3848 22.9058 55.5458 22.6099 55.6618C22.314 55.7754 21.9814 55.8323 21.612 55.8323ZM29.1591 51.4857L28.4062 51.6987C28.3589 51.5733 28.289 51.4513 28.1967 51.333C28.1067 51.2122 27.9836 51.1128 27.8274 51.0347C27.6711 50.9566 27.4711 50.9175 27.2272 50.9175C26.8934 50.9175 26.6153 50.9944 26.3927 51.1483C26.1725 51.2998 26.0625 51.4928 26.0625 51.7272C26.0625 51.9355 26.1382 52.1 26.2897 52.2208C26.4413 52.3415 26.678 52.4421 27 52.5226L27.8096 52.7215C28.2973 52.8398 28.6607 53.0209 28.8998 53.2648C29.1389 53.5063 29.2585 53.8176 29.2585 54.1987C29.2585 54.5112 29.1685 54.7906 28.9886 55.0368C28.811 55.283 28.5625 55.4772 28.2429 55.6192C27.9233 55.7612 27.5516 55.8323 27.1278 55.8323C26.5715 55.8323 26.111 55.7115 25.7464 55.47C25.3818 55.2286 25.151 54.8758 25.0539 54.4118L25.8494 54.2129C25.9252 54.5065 26.0684 54.7267 26.2791 54.8735C26.4922 55.0202 26.7703 55.0936 27.1136 55.0936C27.5042 55.0936 27.8144 55.0108 28.044 54.845C28.276 54.677 28.392 54.4757 28.392 54.2414C28.392 54.052 28.3257 53.8933 28.1931 53.7655C28.0606 53.6353 27.857 53.5382 27.5824 53.4743L26.6733 53.2612C26.1737 53.1429 25.8068 52.9594 25.5724 52.7108C25.3404 52.4599 25.2244 52.1462 25.2244 51.7698C25.2244 51.462 25.3108 51.1897 25.4836 50.953C25.6588 50.7163 25.8967 50.5304 26.1974 50.3955C26.5004 50.2605 26.8437 50.1931 27.2272 50.1931C27.767 50.1931 28.1908 50.3114 28.4985 50.5482C28.8087 50.7849 29.0288 51.0974 29.1591 51.4857ZM33.7462 55.7186V48.4459H36.2036C36.7741 48.4459 37.2405 48.5489 37.6027 48.7548C37.9673 48.9584 38.2372 49.2343 38.4124 49.5823C38.5875 49.9303 38.6751 50.3185 38.6751 50.747C38.6751 51.1755 38.5875 51.565 38.4124 51.9154C38.2395 52.2657 37.972 52.5451 37.6098 52.7534C37.2476 52.9594 36.7836 53.0624 36.2178 53.0624H34.4564V52.2811H36.1893C36.58 52.2811 36.8937 52.2137 37.1304 52.0787C37.3671 51.9438 37.5388 51.7615 37.6453 51.5318C37.7542 51.2998 37.8087 51.0382 37.8087 50.747C37.8087 50.4558 37.7542 50.1954 37.6453 49.9658C37.5388 49.7361 37.366 49.5562 37.1268 49.426C36.8877 49.2934 36.5705 49.2272 36.1751 49.2272H34.6268V55.7186H33.7462ZM41.7353 55.8465C41.3897 55.8465 41.076 55.7814 40.7942 55.6512C40.5125 55.5186 40.2888 55.328 40.1231 55.0794C39.9574 54.8285 39.8745 54.5254 39.8745 54.1703C39.8745 53.8578 39.9361 53.6045 40.0592 53.4104C40.1823 53.2139 40.3468 53.06 40.5528 52.9487C40.7587 52.8375 40.986 52.7546 41.2346 52.7002C41.4855 52.6433 41.7377 52.5984 41.991 52.5652C42.3224 52.5226 42.5911 52.4906 42.7971 52.4693C43.0054 52.4457 43.1569 52.4066 43.2516 52.3522C43.3487 52.2977 43.3972 52.203 43.3972 52.0681V52.0397C43.3972 51.6893 43.3013 51.417 43.1096 51.2229C42.9202 51.0288 42.6325 50.9317 42.2467 50.9317C41.8466 50.9317 41.5329 51.0193 41.3056 51.1945C41.0783 51.3697 40.9185 51.5567 40.8262 51.7556L40.0307 51.4715C40.1728 51.14 40.3622 50.882 40.5989 50.6973C40.838 50.5103 41.0985 50.3801 41.3802 50.3067C41.6643 50.2309 41.9436 50.1931 42.2183 50.1931C42.3934 50.1931 42.5947 50.2144 42.8219 50.257C43.0516 50.2972 43.2729 50.3813 43.486 50.5091C43.7014 50.637 43.8802 50.8299 44.0222 51.0879C44.1643 51.346 44.2353 51.6916 44.2353 52.1249V55.7186H43.3972V54.98H43.3546C43.2978 55.0984 43.2031 55.225 43.0705 55.36C42.9379 55.4949 42.7616 55.6097 42.5414 55.7044C42.3212 55.7991 42.0525 55.8465 41.7353 55.8465ZM41.8631 55.0936C42.1946 55.0936 42.4739 55.0285 42.7012 54.8983C42.9308 54.7681 43.1037 54.6 43.2197 54.3941C43.338 54.1881 43.3972 53.9715 43.3972 53.7442V52.9772C43.3617 53.0198 43.2836 53.0588 43.1629 53.0943C43.0445 53.1275 42.9072 53.1571 42.7509 53.1831C42.597 53.2068 42.4467 53.2281 42.2999 53.247C42.1555 53.2636 42.0383 53.2778 41.9484 53.2897C41.7306 53.3181 41.527 53.3642 41.3376 53.4281C41.1505 53.4897 40.999 53.5832 40.883 53.7087C40.7694 53.8318 40.7126 53.9999 40.7126 54.2129C40.7126 54.5041 40.8203 54.7243 41.0357 54.8735C41.2535 55.0202 41.5293 55.0936 41.8631 55.0936ZM45.9149 55.7186V50.2641H46.753V55.7186H45.9149ZM46.3411 49.355C46.1777 49.355 46.0369 49.2994 45.9185 49.1881C45.8025 49.0768 45.7445 48.9431 45.7445 48.7868C45.7445 48.6306 45.8025 48.4968 45.9185 48.3855C46.0369 48.2743 46.1777 48.2186 46.3411 48.2186C46.5044 48.2186 46.6441 48.2743 46.7601 48.3855C46.8785 48.4968 46.9377 48.6306 46.9377 48.7868C46.9377 48.9431 46.8785 49.0768 46.7601 49.1881C46.6441 49.2994 46.5044 49.355 46.3411 49.355ZM50.4977 55.8323C50.0431 55.8323 49.6418 55.7174 49.2938 55.4878C48.9458 55.2558 48.6736 54.9291 48.4771 54.5077C48.2806 54.0839 48.1823 53.5832 48.1823 53.0056C48.1823 52.4326 48.2806 51.9355 48.4771 51.5141C48.6736 51.0927 48.947 50.7672 49.2974 50.5375C49.6478 50.3079 50.0526 50.1931 50.5119 50.1931C50.867 50.1931 51.1475 50.2522 51.3535 50.3706C51.5618 50.4866 51.7204 50.6192 51.8293 50.7683C51.9406 50.9151 52.027 51.0359 52.0886 51.1306H52.1596V48.4459H52.9977V55.7186H52.188V54.8806H52.0886C52.027 54.98 51.9394 55.1055 51.8258 55.257C51.7121 55.4061 51.55 55.5399 51.3393 55.6583C51.1286 55.7743 50.848 55.8323 50.4977 55.8323ZM50.6113 55.0794C50.9475 55.0794 51.2316 54.9918 51.4636 54.8166C51.6956 54.6391 51.8719 54.3941 51.9927 54.0816C52.1134 53.7667 52.1738 53.4033 52.1738 52.9914C52.1738 52.5842 52.1146 52.2279 51.9962 51.9225C51.8779 51.6147 51.7027 51.3756 51.4707 51.2051C51.2387 51.0323 50.9522 50.9459 50.6113 50.9459C50.2562 50.9459 49.9603 51.037 49.7235 51.2193C49.4891 51.3993 49.3128 51.6443 49.1944 51.9544C49.0784 52.2622 49.0204 52.6078 49.0204 52.9914C49.0204 53.3796 49.0796 53.7324 49.1979 54.0496C49.3187 54.3645 49.4962 54.6154 49.7306 54.8024C49.9674 54.9871 50.2609 55.0794 50.6113 55.0794Z" fill="#464646"/>
<line x1="64.5" y1="0.00659178" x2="64.5" y2="75.0066" stroke="#ECECEC"/>
<line x1="137.5" y1="0.00659178" x2="137.5" y2="75.0066" stroke="#ECECEC"/>
<line x1="210.5" y1="0.00659178" x2="210.5" y2="75.0066" stroke="#ECECEC"/>
<rect x="78.5" y="0.892456" width="43.4256" height="43.4256" rx="15.5" fill="white" stroke="#B68A36"/>
<path d="M100.5 29.6875C105.662 29.6875 109.844 25.5053 109.844 20.3438C109.844 15.1822 105.662 11 100.5 11C95.3385 11 91.1562 15.1822 91.1562 20.3438C91.1562 25.5053 95.3385 29.6875 100.5 29.6875ZM99.5027 15.3754V14.6207C99.5027 14.2074 99.8352 13.875 100.248 13.875H100.747C101.16 13.875 101.493 14.2074 101.493 14.6207V15.3844C102.189 15.4203 102.863 15.6584 103.424 16.0762C103.676 16.2604 103.703 16.6287 103.478 16.8443L102.746 17.5406C102.575 17.7068 102.319 17.7113 102.117 17.5855C101.875 17.4328 101.605 17.3564 101.318 17.3564H99.5701C99.1658 17.3564 98.8379 17.7248 98.8379 18.1785C98.8379 18.5469 99.0625 18.8748 99.3814 18.9691L102.18 19.8092C103.335 20.1551 104.143 21.2646 104.143 22.509C104.143 24.0363 102.957 25.2717 101.488 25.3121V26.0668C101.488 26.4801 101.156 26.8125 100.743 26.8125H100.244C99.8307 26.8125 99.4982 26.4801 99.4982 26.0668V25.3031C98.802 25.2672 98.1281 25.0291 97.5666 24.6113C97.315 24.4271 97.2881 24.0588 97.5127 23.8432L98.2449 23.1469C98.4156 22.9807 98.6717 22.9762 98.8738 23.102C99.1164 23.2547 99.3859 23.3311 99.6734 23.3311H101.421C101.825 23.3311 102.153 22.9627 102.153 22.509C102.153 22.1406 101.929 21.8127 101.61 21.7184L98.8109 20.8783C97.6564 20.5324 96.8479 19.4229 96.8479 18.1785C96.8523 16.6512 98.0338 15.4158 99.5027 15.3754ZM110.562 26.8125H109.103C108.222 27.9805 107.099 28.9553 105.823 29.6875H108.689C108.927 29.6875 109.121 29.8492 109.121 30.0469V30.7656C109.121 30.9633 108.927 31.125 108.689 31.125H92.3062C92.0682 31.125 91.875 30.9633 91.875 30.7656V30.0469C91.875 29.8492 92.0682 29.6875 92.3062 29.6875H95.1723C93.8965 28.9553 92.7779 27.9805 91.893 26.8125H90.4375C89.6424 26.8125 89 27.4549 89 28.25V32.5625C89 33.3576 89.6424 34 90.4375 34H110.562C111.358 34 112 33.3576 112 32.5625V28.25C112 27.4549 111.358 26.8125 110.562 26.8125Z" fill="#B68A36"/>
<path d="M79.29 75.4314C78.4697 75.4314 77.7399 75.2982 77.1007 75.0319C76.4651 74.762 75.9661 74.3944 75.6039 73.9292C75.2417 73.464 75.0606 72.9367 75.0606 72.3472C75.0606 71.8927 75.1636 71.4754 75.3695 71.0954C75.5791 70.7119 75.8631 70.3941 76.2218 70.142C76.5805 69.8863 76.9818 69.7229 77.4256 69.6519V69.5773C76.8433 69.4601 76.371 69.1778 76.0087 68.7304C75.6465 68.2794 75.4654 67.7556 75.4654 67.159C75.4654 66.5944 75.6305 66.0919 75.9608 65.6515C76.2911 65.2077 76.7438 64.8596 77.3191 64.6075C77.898 64.3518 78.5549 64.224 79.29 64.224C80.0251 64.224 80.6803 64.3518 81.2556 64.6075C81.8344 64.8632 82.2889 65.213 82.6192 65.6569C82.9494 66.0972 83.1163 66.5979 83.1199 67.159C83.1163 67.7591 82.9317 68.2829 82.5659 68.7304C82.2002 69.1778 81.7314 69.4601 81.1597 69.5773V69.6519C81.5965 69.7229 81.9924 69.8863 82.3475 70.142C82.7062 70.3941 82.9903 70.7119 83.1998 71.0954C83.4129 71.4754 83.5212 71.8927 83.5247 72.3472C83.5212 72.9367 83.3383 73.464 82.9761 73.9292C82.6139 74.3944 82.1131 74.762 81.4739 75.0319C80.8383 75.2982 80.1103 75.4314 79.29 75.4314ZM79.29 73.7375C79.6558 73.7375 79.9754 73.6718 80.2488 73.5404C80.5222 73.4055 80.7353 73.2208 80.888 72.9864C81.0443 72.7485 81.1224 72.4751 81.1224 72.1661C81.1224 71.8501 81.0425 71.5713 80.8827 71.3298C80.7229 71.0848 80.5063 70.893 80.2328 70.7545C79.9594 70.6125 79.6451 70.5415 79.29 70.5415C78.9384 70.5415 78.6242 70.6125 78.3472 70.7545C78.0702 70.893 77.8518 71.0848 77.692 71.3298C77.5357 71.5713 77.4576 71.8501 77.4576 72.1661C77.4576 72.4751 77.534 72.7485 77.6867 72.9864C77.8394 73.2208 78.0542 73.4055 78.3312 73.5404C78.6082 73.6718 78.9278 73.7375 79.29 73.7375ZM79.29 68.8635C79.5954 68.8635 79.8671 68.8014 80.105 68.6771C80.3429 68.5528 80.5293 68.3806 80.6643 68.1604C80.7992 67.9403 80.8667 67.6863 80.8667 67.3987C80.8667 67.1146 80.7992 66.866 80.6643 66.653C80.5293 66.4363 80.3447 66.2677 80.1103 66.1469C79.8759 66.0226 79.6025 65.9605 79.29 65.9605C78.981 65.9605 78.7076 66.0226 78.4697 66.1469C78.2318 66.2677 78.0453 66.4363 77.9104 66.653C77.779 66.866 77.7133 67.1146 77.7133 67.3987C77.7133 67.6863 77.7808 67.9403 77.9157 68.1604C78.0506 68.3806 78.2371 68.5528 78.475 68.6771C78.7129 68.8014 78.9846 68.8635 79.29 68.8635ZM85.2874 75.2822V73.6203L89.1706 70.0248C89.5008 69.7052 89.7778 69.4175 90.0015 69.1618C90.2288 68.9062 90.401 68.6558 90.5182 68.4108C90.6354 68.1622 90.694 67.8941 90.694 67.6064C90.694 67.2868 90.6212 67.0116 90.4756 66.7808C90.33 66.5464 90.1311 66.3671 89.879 66.2428C89.6269 66.115 89.341 66.051 89.0214 66.051C88.6876 66.051 88.3964 66.1185 88.1478 66.2535C87.8992 66.3884 87.7075 66.5819 87.5725 66.8341C87.4376 67.0862 87.3701 67.3863 87.3701 67.7343H85.1809C85.1809 67.0205 85.3424 66.4008 85.6656 65.8753C85.9887 65.3497 86.4415 64.9431 87.0239 64.6555C87.6063 64.3678 88.2774 64.224 89.0374 64.224C89.8186 64.224 90.4987 64.3625 91.0775 64.6395C91.6599 64.9129 92.1127 65.2929 92.4358 65.7794C92.759 66.2659 92.9206 66.8234 92.9206 67.452C92.9206 67.8639 92.8389 68.2705 92.6755 68.6718C92.5157 69.0731 92.2299 69.5187 91.8179 70.0088C91.406 70.4953 90.8254 71.0795 90.0761 71.7613L88.4834 73.322V73.3966H93.0644V75.2822H85.2874ZM98.87 75.4314C98.1172 75.4314 97.446 75.2929 96.8565 75.0159C96.2706 74.7389 95.8054 74.3572 95.4609 73.8706C95.1165 73.3841 94.9371 72.8266 94.9229 72.1981H97.1601C97.185 72.6206 97.3625 72.9633 97.6928 73.2261C98.0231 73.4889 98.4155 73.6203 98.87 73.6203C99.2322 73.6203 99.5518 73.5404 99.8288 73.3806C100.109 73.2172 100.328 72.9917 100.484 72.7041C100.644 72.4129 100.724 72.0791 100.724 71.7027C100.724 71.3192 100.642 70.9818 100.479 70.6906C100.319 70.3994 100.097 70.1721 99.8128 70.0088C99.5287 69.8454 99.2038 69.762 98.838 69.7584C98.5184 69.7584 98.2077 69.8241 97.9059 69.9555C97.6076 70.0869 97.375 70.2662 97.2081 70.4935L95.1573 70.126L95.674 64.3731H102.343V66.2588H97.5756L97.2933 68.9914H97.3572C97.549 68.7215 97.8384 68.4978 98.2255 68.3202C98.6125 68.1427 99.0458 68.0539 99.5252 68.0539C100.182 68.0539 100.768 68.2084 101.283 68.5173C101.798 68.8263 102.205 69.2506 102.503 69.7904C102.801 70.3266 102.948 70.9445 102.945 71.6441C102.948 72.3792 102.778 73.0326 102.434 73.6043C102.093 74.1725 101.615 74.6199 101.001 74.9466C100.39 75.2698 99.6797 75.4314 98.87 75.4314ZM109.327 75.2822H107.679L110.19 68.0095H112.171L114.678 75.2822H113.031L111.209 69.6714H111.152L109.327 75.2822ZM109.224 72.4236H113.116V73.6238H109.224V72.4236ZM115.704 75.2822V68.0095H120.604V69.2773H117.241V71.0102H120.352V72.278H117.241V74.0145H120.618V75.2822H115.704ZM124.555 75.2822H121.977V68.0095H124.576C125.308 68.0095 125.937 68.1551 126.465 68.4463C126.993 68.7351 127.399 69.1506 127.683 69.6927C127.97 70.2349 128.113 70.8836 128.113 71.6388C128.113 72.3963 127.97 73.0474 127.683 73.5919C127.399 74.1364 126.991 74.5542 126.458 74.8454C125.928 75.1366 125.293 75.2822 124.555 75.2822ZM123.514 73.9648H124.491C124.945 73.9648 125.328 73.8843 125.638 73.7233C125.95 73.5599 126.185 73.3078 126.341 72.9669C126.5 72.6236 126.579 72.1809 126.579 71.6388C126.579 71.1014 126.5 70.6622 126.341 70.3213C126.185 69.9804 125.952 69.7294 125.641 69.5684C125.331 69.4075 124.949 69.327 124.494 69.327H123.514V73.9648Z" fill="#B68A36"/>
<path d="M89.858 49.5455C89.8153 49.1856 89.6425 48.9062 89.3395 48.7074C89.0365 48.5085 88.6648 48.4091 88.2244 48.4091C87.9025 48.4091 87.6207 48.4612 87.3793 48.5653C87.1402 48.6695 86.9531 48.8127 86.8182 48.995C86.6856 49.1773 86.6193 49.3845 86.6193 49.6165C86.6193 49.8106 86.6655 49.9775 86.7578 50.1172C86.8525 50.2545 86.9732 50.3693 87.12 50.4616C87.2668 50.5516 87.4207 50.6262 87.5817 50.6854C87.7427 50.7422 87.8906 50.7884 88.0256 50.8239L88.7642 51.0227C88.9536 51.0724 89.1643 51.1411 89.3963 51.2287C89.6307 51.3163 89.8544 51.4358 90.0675 51.5874C90.2829 51.7365 90.4605 51.9283 90.6001 52.1626C90.7398 52.397 90.8097 52.6847 90.8097 53.0256C90.8097 53.4186 90.7067 53.7737 90.5007 54.0909C90.2971 54.4081 89.9988 54.6603 89.6058 54.8473C89.2152 55.0343 88.7405 55.1278 88.1818 55.1278C87.661 55.1278 87.21 55.0438 86.8288 54.8757C86.45 54.7076 86.1518 54.4732 85.9339 54.1726C85.7185 53.8719 85.5966 53.5227 85.5682 53.125H86.4773C86.5009 53.3996 86.5933 53.6269 86.7543 53.8068C86.9176 53.9844 87.1236 54.117 87.3722 54.2045C87.6231 54.2898 87.893 54.3324 88.1818 54.3324C88.518 54.3324 88.8198 54.2779 89.0874 54.169C89.3549 54.0578 89.5668 53.9039 89.723 53.7074C89.8793 53.5085 89.9574 53.2765 89.9574 53.0114C89.9574 52.7699 89.8899 52.5734 89.755 52.4219C89.62 52.2704 89.4425 52.1473 89.2223 52.0526C89.0021 51.9579 88.7642 51.875 88.5085 51.804L87.6136 51.5483C87.0455 51.3849 86.5956 51.1518 86.2642 50.8487C85.9328 50.5457 85.767 50.1491 85.767 49.6591C85.767 49.2519 85.8771 48.8968 86.0973 48.5938C86.3198 48.2884 86.6181 48.0516 86.9922 47.8835C87.3686 47.7131 87.7888 47.6278 88.2528 47.6278C88.7216 47.6278 89.1383 47.7119 89.5028 47.88C89.8674 48.0457 90.1563 48.273 90.3693 48.5618C90.5848 48.8506 90.6984 49.1785 90.7102 49.5455H89.858ZM93.8991 55.1278C93.5535 55.1278 93.2398 55.0627 92.9581 54.9325C92.6763 54.8 92.4526 54.6094 92.2869 54.3608C92.1212 54.1098 92.0383 53.8068 92.0383 53.4517C92.0383 53.1392 92.0999 52.8859 92.223 52.6918C92.3461 52.4953 92.5106 52.3414 92.7166 52.2301C92.9225 52.1188 93.1498 52.036 93.3984 51.9815C93.6493 51.9247 93.9015 51.8797 94.1548 51.8466C94.4862 51.804 94.7549 51.772 94.9609 51.7507C95.1692 51.727 95.3208 51.688 95.4154 51.6335C95.5125 51.5791 95.561 51.4844 95.561 51.3494V51.321C95.561 50.9706 95.4652 50.6984 95.2734 50.5043C95.084 50.3101 94.7964 50.2131 94.4105 50.2131C94.0104 50.2131 93.6967 50.3007 93.4694 50.4759C93.2422 50.651 93.0824 50.8381 92.99 51.0369L92.1946 50.7528C92.3366 50.4214 92.526 50.1634 92.7627 49.9787C93.0019 49.7917 93.2623 49.6615 93.544 49.5881C93.8281 49.5123 94.1074 49.4744 94.3821 49.4744C94.5573 49.4744 94.7585 49.4957 94.9858 49.5384C95.2154 49.5786 95.4368 49.6626 95.6498 49.7905C95.8653 49.9183 96.044 50.1113 96.186 50.3693C96.3281 50.6274 96.3991 50.973 96.3991 51.4062V55H95.561V54.2614H95.5184C95.4616 54.3797 95.3669 54.5064 95.2343 54.6413C95.1018 54.7763 94.9254 54.8911 94.7052 54.9858C94.485 55.0805 94.2163 55.1278 93.8991 55.1278ZM94.027 54.375C94.3584 54.375 94.6377 54.3099 94.865 54.1797C95.0947 54.0495 95.2675 53.8814 95.3835 53.6754C95.5019 53.4695 95.561 53.2528 95.561 53.0256V52.2585C95.5255 52.3011 95.4474 52.3402 95.3267 52.3757C95.2083 52.4089 95.071 52.4384 94.9147 52.4645C94.7609 52.4882 94.6105 52.5095 94.4637 52.5284C94.3193 52.545 94.2021 52.5592 94.1122 52.571C93.8944 52.5994 93.6908 52.6456 93.5014 52.7095C93.3144 52.7711 93.1628 52.8646 93.0468 52.9901C92.9332 53.1132 92.8764 53.2812 92.8764 53.4943C92.8764 53.7855 92.9841 54.0057 93.1995 54.1548C93.4173 54.3016 93.6931 54.375 94.027 54.375ZM102.344 49.5455L100.327 55H99.4744L97.4573 49.5455H98.3664L99.8721 53.892H99.9289L101.435 49.5455H102.344ZM105.691 55.1136C105.166 55.1136 104.713 54.9976 104.331 54.7656C103.953 54.5312 103.66 54.2045 103.454 53.7855C103.251 53.3641 103.149 52.8741 103.149 52.3153C103.149 51.7566 103.251 51.2642 103.454 50.8381C103.66 50.4096 103.947 50.0758 104.314 49.8366C104.683 49.5952 105.114 49.4744 105.606 49.4744C105.89 49.4744 106.171 49.5218 106.448 49.6165C106.725 49.7112 106.977 49.8651 107.204 50.0781C107.432 50.2888 107.613 50.5682 107.748 50.9162C107.883 51.2642 107.95 51.6927 107.95 52.2017V52.5568H103.745V51.8324H107.098C107.098 51.5246 107.036 51.25 106.913 51.0085C106.792 50.767 106.62 50.5765 106.395 50.4368C106.172 50.2971 105.909 50.2273 105.606 50.2273C105.272 50.2273 104.984 50.3101 104.74 50.4759C104.498 50.6392 104.312 50.8523 104.182 51.1151C104.052 51.3778 103.987 51.6596 103.987 51.9602V52.4432C103.987 52.8551 104.058 53.2043 104.2 53.4908C104.344 53.7749 104.544 53.9915 104.8 54.1406C105.056 54.2874 105.353 54.3608 105.691 54.3608C105.912 54.3608 106.111 54.33 106.288 54.2685C106.468 54.2045 106.623 54.1098 106.753 53.9844C106.883 53.8565 106.984 53.6979 107.055 53.5085L107.865 53.7358C107.78 54.0104 107.636 54.2519 107.435 54.4602C107.234 54.6662 106.985 54.8272 106.689 54.9432C106.393 55.0568 106.061 55.1136 105.691 55.1136ZM111.435 55.1136C110.98 55.1136 110.579 54.9988 110.231 54.7692C109.883 54.5372 109.61 54.2105 109.414 53.7891C109.217 53.3653 109.119 52.8646 109.119 52.2869C109.119 51.714 109.217 51.2169 109.414 50.7955C109.61 50.3741 109.884 50.0485 110.234 49.8189C110.585 49.5893 110.989 49.4744 111.449 49.4744C111.804 49.4744 112.084 49.5336 112.29 49.652C112.499 49.768 112.657 49.9006 112.766 50.0497C112.877 50.1965 112.964 50.3172 113.025 50.4119H113.096V47.7273H113.935V55H113.125V54.1619H113.025C112.964 54.2614 112.876 54.3868 112.763 54.5384C112.649 54.6875 112.487 54.8213 112.276 54.9396C112.065 55.0556 111.785 55.1136 111.435 55.1136ZM111.548 54.3608C111.884 54.3608 112.168 54.2732 112.4 54.098C112.632 53.9205 112.809 53.6754 112.93 53.3629C113.05 53.0481 113.111 52.6847 113.111 52.2727C113.111 51.8655 113.051 51.5092 112.933 51.2038C112.815 50.8961 112.64 50.657 112.408 50.4865C112.176 50.3137 111.889 50.2273 111.548 50.2273C111.193 50.2273 110.897 50.3184 110.66 50.5007C110.426 50.6806 110.25 50.9257 110.131 51.2358C110.015 51.5436 109.957 51.8892 109.957 52.2727C109.957 52.661 110.016 53.0137 110.135 53.331C110.256 53.6458 110.433 53.8968 110.667 54.0838C110.904 54.2685 111.198 54.3608 111.548 54.3608Z" fill="#464646"/>
<rect x="151.765" y="0.892456" width="43.4256" height="43.4256" rx="15.5" fill="white" stroke="#B68A36"/>
<path d="M180.657 23.2467L176 26.8889H169.75V25.6667H174.831C174.944 25.6666 175.055 25.6366 175.152 25.5798C175.249 25.5229 175.329 25.4415 175.382 25.344C175.435 25.2465 175.461 25.1368 175.455 25.0264C175.45 24.9159 175.414 24.809 175.351 24.717L174.241 23.089C174.014 22.7539 173.705 22.4791 173.342 22.289C172.979 22.099 172.574 21.9997 172.163 22H162.25C161.918 22 161.601 22.1288 161.366 22.358C161.132 22.5872 161 22.8981 161 23.2222V30.5556C161 31.2039 161.263 31.8256 161.732 32.284C162.201 32.7425 162.837 33 163.5 33H175.549C176.083 33.0001 176.612 32.8885 177.098 32.6727C177.585 32.4568 178.019 32.1417 178.371 31.7484L186 23.2222L184.185 22.6307C183.591 22.4371 182.957 22.3921 182.341 22.4997C181.725 22.6073 181.146 22.8641 180.657 23.2467ZM182.572 16.3656C183.136 15.7972 183.485 15.0113 183.485 14.1436C183.485 13.2758 183.136 12.4899 182.572 11.9216C182.287 11.6306 181.945 11.3991 181.566 11.2407C181.187 11.0823 180.78 11.0005 180.368 11C180.368 11 178.812 10.9963 177.25 12.5718C175.688 10.9963 174.132 11 174.132 11C173.721 11.0005 173.313 11.0823 172.934 11.2404C172.555 11.3986 172.213 11.6298 171.927 11.9203C171.364 12.4899 171.015 13.2746 171.015 14.1423C171.015 15.0101 171.364 15.7972 171.927 16.3643L177.25 22L182.572 16.3656Z" fill="#B68A36"/>
<path d="M157.718 64.3732V75.2823H155.411V66.5625H155.347L152.849 68.1285V66.0831L155.55 64.3732H157.718ZM160.524 75.2823V64.3732H162.831V69.1832H162.975L166.901 64.3732H169.665L165.617 69.2578L169.713 75.2823H166.954L163.966 70.7972L162.831 72.1821V75.2823H160.524ZM175.575 75.2823H173.928L176.438 68.0096H178.42L180.927 75.2823H179.279L177.458 69.6715H177.401L175.575 75.2823ZM175.472 72.4236H179.364V73.6239H175.472V72.4236ZM181.952 75.2823V68.0096H186.853V69.2773H183.49V71.0103H186.601V72.278H183.49V74.0145H186.867V75.2823H181.952ZM190.804 75.2823H188.225V68.0096H190.825C191.556 68.0096 192.186 68.1552 192.714 68.4464C193.242 68.7352 193.648 69.1507 193.932 69.6928C194.219 70.2349 194.362 70.8836 194.362 71.6388C194.362 72.3964 194.219 73.0474 193.932 73.5919C193.648 74.1365 193.24 74.5543 192.707 74.8455C192.177 75.1367 191.542 75.2823 190.804 75.2823ZM189.763 73.9648H190.74C191.194 73.9648 191.576 73.8843 191.887 73.7233C192.199 73.56 192.433 73.3079 192.59 72.9669C192.748 72.6237 192.828 72.181 192.828 71.6388C192.828 71.1014 192.748 70.6623 192.59 70.3214C192.433 69.9804 192.2 69.7295 191.89 69.5685C191.58 69.4075 191.198 69.327 190.743 69.327H189.763V73.9648Z" fill="#B68A36"/>
<path d="M156.031 55.7186H153.787V48.4459H156.13C156.836 48.4459 157.44 48.5915 157.942 48.8827C158.443 49.1715 158.828 49.587 159.096 50.1291C159.363 50.6689 159.497 51.3152 159.497 52.0681C159.497 52.8256 159.362 53.4779 159.092 54.0247C158.822 54.5692 158.429 54.9883 157.913 55.2818C157.397 55.573 156.77 55.7186 156.031 55.7186ZM154.667 54.9374H155.974C156.576 54.9374 157.074 54.8214 157.469 54.5894C157.865 54.3574 158.159 54.0271 158.353 53.5986C158.548 53.1701 158.645 52.6599 158.645 52.0681C158.645 51.4809 158.549 50.9755 158.357 50.5517C158.165 50.1256 157.879 49.7989 157.498 49.5716C157.116 49.342 156.642 49.2272 156.074 49.2272H154.667V54.9374ZM163.226 55.8323C162.734 55.8323 162.302 55.7151 161.93 55.4807C161.561 55.2463 161.272 54.9184 161.064 54.497C160.858 54.0756 160.755 53.5832 160.755 53.0198C160.755 52.4516 160.858 51.9556 161.064 51.5318C161.272 51.1081 161.561 50.779 161.93 50.5446C162.302 50.3102 162.734 50.1931 163.226 50.1931C163.719 50.1931 164.15 50.3102 164.519 50.5446C164.891 50.779 165.18 51.1081 165.386 51.5318C165.594 51.9556 165.698 52.4516 165.698 53.0198C165.698 53.5832 165.594 54.0756 165.386 54.497C165.18 54.9184 164.891 55.2463 164.519 55.4807C164.15 55.7151 163.719 55.8323 163.226 55.8323ZM163.226 55.0794C163.601 55.0794 163.908 54.9835 164.15 54.7918C164.391 54.6 164.57 54.3479 164.686 54.0354C164.802 53.7229 164.86 53.3843 164.86 53.0198C164.86 52.6552 164.802 52.3155 164.686 52.0006C164.57 51.6857 164.391 51.4312 164.15 51.2371C163.908 51.043 163.601 50.9459 163.226 50.9459C162.852 50.9459 162.545 51.043 162.303 51.2371C162.062 51.4312 161.883 51.6857 161.767 52.0006C161.651 52.3155 161.593 52.6552 161.593 53.0198C161.593 53.3843 161.651 53.7229 161.767 54.0354C161.883 54.3479 162.062 54.6 162.303 54.7918C162.545 54.9835 162.852 55.0794 163.226 55.0794ZM167.965 52.4374V55.7186H167.127V50.2641H167.937V51.1164H168.008C168.136 50.8394 168.33 50.6168 168.59 50.4487C168.851 50.2783 169.187 50.1931 169.599 50.1931C169.968 50.1931 170.291 50.2688 170.568 50.4203C170.845 50.5695 171.061 50.7968 171.215 51.1022C171.369 51.4052 171.446 51.7887 171.446 52.2527V55.7186H170.607V52.3095C170.607 51.881 170.496 51.5472 170.274 51.3081C170.051 51.0666 169.746 50.9459 169.357 50.9459C169.09 50.9459 168.851 51.0039 168.64 51.1199C168.432 51.2359 168.267 51.4052 168.147 51.6277C168.026 51.8503 167.965 52.1201 167.965 52.4374ZM174.732 55.8465C174.386 55.8465 174.073 55.7814 173.791 55.6512C173.509 55.5186 173.286 55.328 173.12 55.0794C172.954 54.8285 172.871 54.5254 172.871 54.1703C172.871 53.8578 172.933 53.6045 173.056 53.4104C173.179 53.2139 173.344 53.06 173.55 52.9487C173.756 52.8375 173.983 52.7546 174.231 52.7002C174.482 52.6433 174.734 52.5984 174.988 52.5652C175.319 52.5226 175.588 52.4906 175.794 52.4693C176.002 52.4457 176.154 52.4066 176.248 52.3522C176.345 52.2977 176.394 52.203 176.394 52.0681V52.0397C176.394 51.6893 176.298 51.417 176.106 51.2229C175.917 51.0288 175.629 50.9317 175.243 50.9317C174.843 50.9317 174.53 51.0193 174.302 51.1945C174.075 51.3697 173.915 51.5567 173.823 51.7556L173.028 51.4715C173.17 51.14 173.359 50.882 173.596 50.6973C173.835 50.5103 174.095 50.3801 174.377 50.3067C174.661 50.2309 174.94 50.1931 175.215 50.1931C175.39 50.1931 175.591 50.2144 175.819 50.257C176.048 50.2972 176.27 50.3813 176.483 50.5091C176.698 50.637 176.877 50.8299 177.019 51.0879C177.161 51.346 177.232 51.6916 177.232 52.1249V55.7186H176.394V54.98H176.351C176.295 55.0984 176.2 55.225 176.067 55.36C175.935 55.4949 175.758 55.6097 175.538 55.7044C175.318 55.7991 175.049 55.8465 174.732 55.8465ZM174.86 55.0936C175.191 55.0936 175.471 55.0285 175.698 54.8983C175.928 54.7681 176.1 54.6 176.216 54.3941C176.335 54.1881 176.394 53.9715 176.394 53.7442V52.9772C176.359 53.0198 176.28 53.0588 176.16 53.0943C176.041 53.1275 175.904 53.1571 175.748 53.1831C175.594 53.2068 175.444 53.2281 175.297 53.247C175.152 53.2636 175.035 53.2778 174.945 53.2897C174.727 53.3181 174.524 53.3642 174.334 53.4281C174.147 53.4897 173.996 53.5832 173.88 53.7087C173.766 53.8318 173.709 53.9999 173.709 54.2129C173.709 54.5041 173.817 54.7243 174.033 54.8735C174.25 55.0202 174.526 55.0936 174.86 55.0936ZM181.284 50.2641V50.9743H178.457V50.2641H181.284ZM179.281 48.9573H180.119V54.1561C180.119 54.3929 180.153 54.5704 180.222 54.6888C180.293 54.8048 180.383 54.8829 180.492 54.9232C180.603 54.9611 180.72 54.98 180.844 54.98C180.936 54.98 181.012 54.9753 181.071 54.9658C181.13 54.9539 181.177 54.9445 181.213 54.9374L181.383 55.6902C181.327 55.7115 181.247 55.7328 181.145 55.7541C181.044 55.7778 180.915 55.7897 180.758 55.7897C180.522 55.7897 180.29 55.7388 180.062 55.637C179.837 55.5352 179.65 55.3801 179.501 55.1718C179.354 54.9634 179.281 54.7006 179.281 54.3834V48.9573ZM184.923 55.8323C184.397 55.8323 183.944 55.7163 183.563 55.4843C183.184 55.2499 182.892 54.9232 182.686 54.5041C182.482 54.0827 182.38 53.5927 182.38 53.034C182.38 52.4753 182.482 51.9828 182.686 51.5567C182.892 51.1282 183.178 50.7944 183.545 50.5553C183.914 50.3138 184.345 50.1931 184.838 50.1931C185.122 50.1931 185.402 50.2404 185.679 50.3351C185.956 50.4298 186.208 50.5837 186.436 50.7968C186.663 51.0075 186.844 51.2868 186.979 51.6348C187.114 51.9828 187.181 52.4113 187.181 52.9203V53.2754H182.977V52.551H186.329C186.329 52.2432 186.268 51.9686 186.144 51.7272C186.024 51.4857 185.851 51.2951 185.626 51.1554C185.403 51.0157 185.141 50.9459 184.838 50.9459C184.504 50.9459 184.215 51.0288 183.971 51.1945C183.73 51.3578 183.544 51.5709 183.414 51.8337C183.283 52.0965 183.218 52.3782 183.218 52.6789V53.1618C183.218 53.5737 183.289 53.9229 183.431 54.2094C183.576 54.4935 183.776 54.7101 184.032 54.8593C184.287 55.006 184.584 55.0794 184.923 55.0794C185.143 55.0794 185.342 55.0486 185.519 54.9871C185.699 54.9232 185.854 54.8285 185.985 54.703C186.115 54.5752 186.216 54.4165 186.287 54.2272L187.096 54.4544C187.011 54.729 186.868 54.9705 186.667 55.1789C186.465 55.3848 186.217 55.5458 185.921 55.6618C185.625 55.7754 185.292 55.8323 184.923 55.8323ZM190.666 55.8323C190.211 55.8323 189.81 55.7174 189.462 55.4878C189.114 55.2558 188.842 54.9291 188.645 54.5077C188.449 54.0839 188.351 53.5832 188.351 53.0056C188.351 52.4326 188.449 51.9355 188.645 51.5141C188.842 51.0927 189.115 50.7672 189.466 50.5375C189.816 50.3079 190.221 50.1931 190.68 50.1931C191.035 50.1931 191.316 50.2522 191.522 50.3706C191.73 50.4866 191.889 50.6192 191.998 50.7683C192.109 50.9151 192.195 51.0359 192.257 51.1306H192.328V48.4459H193.166V55.7186H192.356V54.8806H192.257C192.195 54.98 192.108 55.1055 191.994 55.257C191.88 55.4061 191.718 55.5399 191.508 55.6583C191.297 55.7743 191.016 55.8323 190.666 55.8323ZM190.78 55.0794C191.116 55.0794 191.4 54.9918 191.632 54.8166C191.864 54.6391 192.04 54.3941 192.161 54.0816C192.282 53.7667 192.342 53.4033 192.342 52.9914C192.342 52.5842 192.283 52.2279 192.165 51.9225C192.046 51.6147 191.871 51.3756 191.639 51.2051C191.407 51.0323 191.12 50.9459 190.78 50.9459C190.424 50.9459 190.129 51.037 189.892 51.2193C189.657 51.3993 189.481 51.6443 189.363 51.9544C189.247 52.2622 189.189 52.6078 189.189 52.9914C189.189 53.3796 189.248 53.7324 189.366 54.0496C189.487 54.3645 189.665 54.6154 189.899 54.8024C190.136 54.9871 190.429 55.0794 190.78 55.0794Z" fill="#464646"/>
<rect x="224.765" y="0.892456" width="43.4256" height="43.4256" rx="15.5" fill="white" stroke="#B68A36"/>
<circle cx="247" cy="22" r="9.5" stroke="#B68A36"/>
<circle cx="247" cy="22" r="8.09524" fill="#B68A36"/>
<path d="M246.397 28.1818V16.3636H247.155V28.1818H246.397ZM248.406 20.2646C248.369 19.8922 248.21 19.6029 247.93 19.3967C247.65 19.1905 247.27 19.0874 246.79 19.0874C246.464 19.0874 246.188 19.1335 245.964 19.2259C245.739 19.3151 245.567 19.4397 245.446 19.5998C245.33 19.7598 245.271 19.9414 245.271 20.1445C245.265 20.3138 245.3 20.4615 245.377 20.5877C245.457 20.7139 245.567 20.8232 245.705 20.9155C245.844 21.0047 246.004 21.0832 246.185 21.1509C246.367 21.2156 246.561 21.271 246.767 21.3171L247.616 21.5202C248.029 21.6126 248.407 21.7357 248.752 21.8896C249.097 22.0434 249.395 22.2327 249.647 22.4574C249.9 22.6821 250.095 22.9467 250.234 23.2514C250.375 23.5561 250.448 23.9054 250.451 24.2994C250.448 24.878 250.3 25.3796 250.008 25.8043C249.718 26.226 249.3 26.5537 248.752 26.7876C248.207 27.0185 247.55 27.1339 246.781 27.1339C246.017 27.1339 245.353 27.0169 244.786 26.783C244.223 26.5491 243.783 26.2029 243.466 25.7443C243.152 25.2827 242.987 24.7118 242.972 24.0316H244.906C244.928 24.3486 245.019 24.6133 245.179 24.8256C245.342 25.0349 245.559 25.1934 245.83 25.3011C246.104 25.4058 246.413 25.4581 246.758 25.4581C247.096 25.4581 247.39 25.4089 247.639 25.3104C247.892 25.2119 248.087 25.0749 248.226 24.8995C248.364 24.7241 248.433 24.5225 248.433 24.2947C248.433 24.0824 248.37 23.9039 248.244 23.7592C248.121 23.6146 247.939 23.4915 247.699 23.3899C247.462 23.2884 247.172 23.196 246.827 23.1129L245.797 22.8544C245 22.6605 244.371 22.3574 243.909 21.945C243.448 21.5326 243.218 20.977 243.221 20.2784C243.218 19.706 243.371 19.2058 243.678 18.7781C243.989 18.3503 244.415 18.0163 244.957 17.7763C245.499 17.5362 246.114 17.4162 246.804 17.4162C247.505 17.4162 248.118 17.5362 248.641 17.7763C249.167 18.0163 249.577 18.3503 249.869 18.7781C250.161 19.2058 250.312 19.7013 250.321 20.2646H248.406Z" fill="white"/>
<path d="M228.73 75.4314C227.934 75.4314 227.226 75.2947 226.604 75.0213C225.986 74.7443 225.498 74.3643 225.139 73.8814C224.784 73.3949 224.601 72.8338 224.591 72.1981H226.913C226.927 72.4645 227.014 72.6988 227.174 72.9013C227.338 73.1001 227.554 73.2546 227.824 73.3647C228.094 73.4748 228.398 73.5298 228.735 73.5298C229.086 73.5298 229.397 73.4677 229.667 73.3434C229.937 73.2191 230.148 73.0468 230.301 72.8267C230.454 72.6065 230.53 72.3526 230.53 72.065C230.53 71.7738 230.448 71.5163 230.285 71.2926C230.125 71.0653 229.894 70.8878 229.592 70.7599C229.294 70.6321 228.939 70.5682 228.527 70.5682H227.51V68.8743H228.527C228.875 68.8743 229.182 68.8139 229.449 68.6932C229.719 68.5724 229.928 68.4055 230.077 68.1924C230.226 67.9758 230.301 67.7237 230.301 67.4361C230.301 67.1626 230.235 66.9229 230.104 66.7169C229.976 66.5074 229.795 66.3441 229.561 66.2269C229.33 66.1097 229.06 66.0511 228.751 66.0511C228.438 66.0511 228.153 66.1079 227.893 66.2216C227.634 66.3316 227.426 66.4897 227.27 66.6956C227.114 66.9016 227.03 67.1431 227.02 67.4201H224.809C224.82 66.7915 224.999 66.2375 225.347 65.7581C225.695 65.2787 226.164 64.9041 226.753 64.6342C227.346 64.3608 228.016 64.224 228.762 64.224C229.514 64.224 230.173 64.3608 230.738 64.6342C231.302 64.9076 231.741 65.277 232.053 65.7422C232.369 66.2038 232.526 66.7223 232.522 67.2976C232.526 67.9084 232.336 68.4179 231.952 68.8263C231.572 69.2347 231.077 69.4939 230.466 69.604V69.6892C231.269 69.7922 231.879 70.071 232.298 70.5255C232.721 70.9765 232.931 71.5412 232.927 72.2194C232.931 72.8409 232.751 73.3931 232.389 73.876C232.03 74.359 231.535 74.739 230.903 75.016C230.271 75.2929 229.546 75.4314 228.73 75.4314ZM234.799 75.2823V64.3732H237.105V69.1832H237.249L241.175 64.3732H243.939L239.891 69.2578L243.987 75.2823H241.228L238.24 70.7972L237.105 72.1821V75.2823H234.799ZM249.85 75.2823H248.202L250.713 68.0096H252.694L255.201 75.2823H253.554L251.732 69.6715H251.675L249.85 75.2823ZM249.747 72.4236H253.639V73.6239H249.747V72.4236ZM256.227 75.2823V68.0096H261.127V69.2773H257.764V71.0103H260.875V72.278H257.764V74.0145H261.142V75.2823H256.227ZM265.078 75.2823H262.5V68.0096H265.099C265.831 68.0096 266.461 68.1552 266.988 68.4464C267.516 68.7352 267.922 69.1507 268.206 69.6928C268.493 70.2349 268.636 70.8836 268.636 71.6388C268.636 72.3964 268.493 73.0474 268.206 73.5919C267.922 74.1365 267.514 74.5543 266.981 74.8455C266.451 75.1367 265.817 75.2823 265.078 75.2823ZM264.037 73.9648H265.014C265.469 73.9648 265.851 73.8843 266.161 73.7233C266.474 73.56 266.708 73.3079 266.864 72.9669C267.023 72.6237 267.102 72.181 267.102 71.6388C267.102 71.1014 267.023 70.6623 266.864 70.3214C266.708 69.9804 266.475 69.7295 266.165 69.5685C265.854 69.4075 265.472 69.327 265.018 69.327H264.037V73.9648Z" fill="#B68A36"/>
<path d="M230.377 55.7186V48.4459H234.767V49.2272H231.258V51.6845H234.539V52.4658H231.258V54.9374H234.823V55.7186H230.377ZM237.995 55.8465C237.65 55.8465 237.336 55.7814 237.054 55.6512C236.773 55.5186 236.549 55.328 236.383 55.0794C236.217 54.8285 236.135 54.5254 236.135 54.1703C236.135 53.8578 236.196 53.6045 236.319 53.4104C236.442 53.2139 236.607 53.06 236.813 52.9487C237.019 52.8375 237.246 52.7546 237.495 52.7002C237.746 52.6433 237.998 52.5984 238.251 52.5652C238.582 52.5226 238.851 52.4906 239.057 52.4693C239.266 52.4457 239.417 52.4066 239.512 52.3522C239.609 52.2977 239.657 52.203 239.657 52.0681V52.0397C239.657 51.6893 239.561 51.417 239.37 51.2229C239.18 51.0288 238.893 50.9317 238.507 50.9317C238.107 50.9317 237.793 51.0193 237.566 51.1945C237.338 51.3697 237.179 51.5567 237.086 51.7556L236.291 51.4715C236.433 51.14 236.622 50.882 236.859 50.6973C237.098 50.5103 237.359 50.3801 237.64 50.3067C237.924 50.2309 238.204 50.1931 238.478 50.1931C238.654 50.1931 238.855 50.2144 239.082 50.257C239.312 50.2972 239.533 50.3813 239.746 50.5091C239.962 50.637 240.14 50.8299 240.282 51.0879C240.424 51.346 240.495 51.6916 240.495 52.1249V55.7186H239.657V54.98H239.615C239.558 55.0984 239.463 55.225 239.331 55.36C239.198 55.4949 239.022 55.6097 238.801 55.7044C238.581 55.7991 238.313 55.8465 237.995 55.8465ZM238.123 55.0936C238.455 55.0936 238.734 55.0285 238.961 54.8983C239.191 54.7681 239.364 54.6 239.48 54.3941C239.598 54.1881 239.657 53.9715 239.657 53.7442V52.9772C239.622 53.0198 239.544 53.0588 239.423 53.0943C239.305 53.1275 239.167 53.1571 239.011 53.1831C238.857 53.2068 238.707 53.2281 238.56 53.247C238.416 53.2636 238.298 53.2778 238.208 53.2897C237.991 53.3181 237.787 53.3642 237.598 53.4281C237.411 53.4897 237.259 53.5832 237.143 53.7087C237.029 53.8318 236.973 53.9999 236.973 54.2129C236.973 54.5041 237.08 54.7243 237.296 54.8735C237.514 55.0202 237.789 55.0936 238.123 55.0936ZM242.175 55.7186V50.2641H242.985V51.0879H243.042C243.141 50.8181 243.321 50.5991 243.581 50.431C243.842 50.2629 244.135 50.1789 244.462 50.1789C244.524 50.1789 244.6 50.18 244.693 50.1824C244.785 50.1848 244.855 50.1883 244.902 50.1931V51.0453C244.874 51.0382 244.809 51.0276 244.707 51.0134C244.608 50.9968 244.502 50.9885 244.391 50.9885C244.126 50.9885 243.889 51.0441 243.681 51.1554C243.475 51.2643 243.311 51.4158 243.191 51.61C243.072 51.8017 243.013 52.0207 243.013 52.2669V55.7186H242.175ZM246.884 52.4374V55.7186H246.046V50.2641H246.855V51.1164H246.926C247.054 50.8394 247.248 50.6168 247.509 50.4487C247.769 50.2783 248.105 50.1931 248.517 50.1931C248.887 50.1931 249.21 50.2688 249.487 50.4203C249.764 50.5695 249.979 50.7968 250.133 51.1022C250.287 51.4052 250.364 51.7887 250.364 52.2527V55.7186H249.526V52.3095C249.526 51.881 249.415 51.5472 249.192 51.3081C248.97 51.0666 248.664 50.9459 248.276 50.9459C248.008 50.9459 247.769 51.0039 247.559 51.1199C247.35 51.2359 247.186 51.4052 247.065 51.6277C246.944 51.8503 246.884 52.1201 246.884 52.4374ZM254.332 55.8323C253.807 55.8323 253.353 55.7163 252.972 55.4843C252.593 55.2499 252.301 54.9232 252.095 54.5041C251.891 54.0827 251.79 53.5927 251.79 53.034C251.79 52.4753 251.891 51.9828 252.095 51.5567C252.301 51.1282 252.587 50.7944 252.954 50.5553C253.324 50.3138 253.755 50.1931 254.247 50.1931C254.531 50.1931 254.812 50.2404 255.089 50.3351C255.366 50.4298 255.618 50.5837 255.845 50.7968C256.072 51.0075 256.253 51.2868 256.388 51.6348C256.523 51.9828 256.591 52.4113 256.591 52.9203V53.2754H252.386V52.551H255.739C255.739 52.2432 255.677 51.9686 255.554 51.7272C255.433 51.4857 255.26 51.2951 255.035 51.1554C254.813 51.0157 254.55 50.9459 254.247 50.9459C253.913 50.9459 253.624 51.0288 253.381 51.1945C253.139 51.3578 252.953 51.5709 252.823 51.8337C252.693 52.0965 252.628 52.3782 252.628 52.6789V53.1618C252.628 53.5737 252.699 53.9229 252.841 54.2094C252.985 54.4935 253.185 54.7101 253.441 54.8593C253.697 55.006 253.994 55.0794 254.332 55.0794C254.552 55.0794 254.751 55.0486 254.929 54.9871C255.109 54.9232 255.264 54.8285 255.394 54.703C255.524 54.5752 255.625 54.4165 255.696 54.2272L256.506 54.4544C256.42 54.729 256.277 54.9705 256.076 55.1789C255.875 55.3848 255.626 55.5458 255.33 55.6618C255.034 55.7754 254.702 55.8323 254.332 55.8323ZM260.075 55.8323C259.621 55.8323 259.219 55.7174 258.871 55.4878C258.523 55.2558 258.251 54.9291 258.055 54.5077C257.858 54.0839 257.76 53.5832 257.76 53.0056C257.76 52.4326 257.858 51.9355 258.055 51.5141C258.251 51.0927 258.525 50.7672 258.875 50.5375C259.225 50.3079 259.63 50.1931 260.09 50.1931C260.445 50.1931 260.725 50.2522 260.931 50.3706C261.139 50.4866 261.298 50.6192 261.407 50.7683C261.518 50.9151 261.605 51.0359 261.666 51.1306H261.737V48.4459H262.575V55.7186H261.766V54.8806H261.666C261.605 54.98 261.517 55.1055 261.403 55.257C261.29 55.4061 261.128 55.5399 260.917 55.6583C260.706 55.7743 260.426 55.8323 260.075 55.8323ZM260.189 55.0794C260.525 55.0794 260.809 54.9918 261.041 54.8166C261.273 54.6391 261.45 54.3941 261.57 54.0816C261.691 53.7667 261.751 53.4033 261.751 52.9914C261.751 52.5842 261.692 52.2279 261.574 51.9225C261.456 51.6147 261.28 51.3756 261.048 51.2051C260.816 51.0323 260.53 50.9459 260.189 50.9459C259.834 50.9459 259.538 51.037 259.301 51.2193C259.067 51.3993 258.89 51.6443 258.772 51.9544C258.656 52.2622 258.598 52.6078 258.598 52.9914C258.598 53.3796 258.657 53.7324 258.776 54.0496C258.896 54.3645 259.074 54.6154 259.308 54.8024C259.545 54.9871 259.839 55.0794 260.189 55.0794Z" fill="#464646"/>
</svg>
